<svg version="1.1"
    xmlns="http://www.w3.org/2000/svg"
    xmlns:xlink="http://www.w3.org/1999/xlink" width="150" height="150" viewBox="0,0,256,256">
    <g fill="none" fill-rule="nonzero" stroke="none" stroke-width="1" stroke-linecap="butt" stroke-linejoin="miter" stroke-miterlimit="10" stroke-dasharray="" stroke-dashoffset="0" font-family="none" font-weight="none" font-size="none" text-anchor="none" style="mix-blend-mode: normal">
        <g transform="scale(4,4)">
            <path d="M63.5,47c0.00815,-2.23401 -1.05928,-4.33544 -2.86816,-5.64648c0.34333,-2.20543 -0.3867,-4.44226 -1.96491,-6.02057c-1.57821,-1.5783 -3.815,-2.30847 -6.02045,-1.96527c-1.31665,-1.80225 -3.41453,-2.86771 -5.6465,-2.86771c-2.23197,0 -4.32985,1.06546 -5.6465,2.86771c-2.20545,-0.34319 -4.44224,0.38697 -6.02045,1.96527c-1.57821,1.5783 -2.30824,3.81514 -1.96491,6.02057c-1.80252,1.31648 -2.86819,3.41442 -2.86819,5.6465c0,2.23208 1.06567,4.33002 2.86819,5.6465c-0.34333,2.20543 0.3867,4.44226 1.96491,6.02057c1.57821,1.5783 3.815,2.30847 6.02045,1.96527c1.31665,1.80225 3.41453,2.86771 5.6465,2.86771c2.23197,0 4.32985,-1.06546 5.6465,-2.86771c2.20545,0.34319 4.44224,-0.38697 6.02045,-1.96527c1.57821,-1.5783 2.30824,-3.81514 1.96491,-6.02057c1.80889,-1.31105 2.87632,-3.4125 2.86816,-5.64652zM53.01074,53.01025c-3.32178,3.31446 -8.6997,3.31446 -12.02148,0c-0.38013,-0.37865 -0.52905,-0.93151 -0.39052,-1.44986c0.13853,-0.51835 0.5434,-0.92322 1.06175,-1.06175c0.51835,-0.13853 1.07122,0.01039 1.44986,0.39052c2.14991,2.14404 5.62939,2.14404 7.7793,0c0.37865,-0.38013 0.93151,-0.52905 1.44986,-0.39052c0.51835,0.13853 0.92322,0.5434 1.06175,1.06175c0.13853,0.51835 -0.01039,1.07122 -0.39052,1.44986z" fill="#fa5252"></path>
            <path d="M60,0.5h-56c-1.93203,0.00234 -3.49766,1.56797 -3.5,3.5v8c0.00555,1.54212 1.02155,2.8982 2.5,3.33679v44.66321c0.00234,1.93203 1.56797,3.49766 3.5,3.5h25.81641c0.82843,0 1.5,-0.67157 1.5,-1.5c0,-0.82843 -0.67157,-1.5 -1.5,-1.5h-4.81641v-45h9v13.51953c0,0.82843 0.67157,1.5 1.5,1.5c0.82843,0 1.5,-0.67157 1.5,-1.5v-13.51953h18.5v14.84277c0,0.82843 0.67157,1.5 1.5,1.5c0.82843,0 1.5,-0.67157 1.5,-1.5v-15.006c1.47844,-0.43859 2.49444,-1.79465 2.5,-3.33677v-8c-0.00234,-1.93203 -1.56797,-3.49766 -3.5,-3.5zM24.5,60.5h-18c-0.27599,-0.00036 -0.49964,-0.22401 -0.5,-0.5v-44.5h18.5zM24.5,12.5h-20.5c-0.27599,-0.00036 -0.49964,-0.22401 -0.5,-0.5v-8c0.00036,-0.27599 0.22401,-0.49964 0.5,-0.5h20.5zM36.5,12.5h-9v-9h9zM60.5,12c-0.00036,0.27599 -0.22401,0.49964 -0.5,0.5h-20.5v-9h20.5c0.27599,0.00036 0.49964,0.22401 0.5,0.5z" fill="#000000"></path>
            <path d="M10.5,55.5h9.5c0.82841,-0.00004 1.49996,-0.67159 1.5,-1.5v-8c-0.00004,-0.82841 -0.67159,-1.49996 -1.5,-1.5h-9.5c-0.82841,0.00004 -1.49996,0.67159 -1.5,1.5v8c0.00004,0.82841 0.67159,1.49996 1.5,1.5zM12,47.5h6.5v5h-6.5z" fill="#000000"></path>
        </g>
    </g>
</svg>