<svg version="1.1"
    xmlns="http://www.w3.org/2000/svg"
    xmlns:xlink="http://www.w3.org/1999/xlink" width="32px" height="32px" viewBox="0,0,256,256">
    <g fill="none" fill-rule="nonzero" stroke="none" stroke-width="1" stroke-linecap="butt" stroke-linejoin="miter" stroke-miterlimit="10" stroke-dasharray="" stroke-dashoffset="0" font-family="none" font-weight="none" font-size="none" text-anchor="none" style="mix-blend-mode: normal">
        <g transform="scale(8,8)">
            <path d="M26,32h-20c-3.314,0 -6,-2.686 -6,-6v-20c0,-3.314 2.686,-6 6,-6h20c3.314,0 6,2.686 6,6v20c0,3.314 -2.686,6 -6,6z" fill="#e6fafe"></path>
            <path d="M21.616,8.667h-11.232c-0.947,0 -1.717,0.771 -1.717,1.717v11.232c0,0.947 0.77,1.717 1.717,1.717h11.232c0.947,0 1.717,-0.771 1.717,-1.717v-11.232c0,-0.947 -0.77,-1.717 -1.717,-1.717z" fill="#63ccf9"></path>
            <path d="M16.667,16.544v2.123c0,0.368 -0.298,0.667 -0.667,0.667c-0.368,0 -0.667,-0.299 -0.667,-0.667v-2.123c-0.774,-0.276 -1.333,-1.009 -1.333,-1.877c0,-1.103 0.897,-2 2,-2c1.103,0 2,0.897 2,2c0,0.868 -0.559,1.601 -1.333,1.877z" fill="#a4e4fc"></path>
        </g>
    </g>
</svg>