<svg version="1.1"
    xmlns="http://www.w3.org/2000/svg"
    xmlns:xlink="http://www.w3.org/1999/xlink" width="1500px" height="1500px" viewBox="0,0,256,256">
    <g fill="#000" fill-rule="nonzero" stroke="none" stroke-width="1" stroke-linecap="butt" stroke-linejoin="miter" stroke-miterlimit="10" stroke-dasharray="" stroke-dashoffset="0" font-family="none" font-weight="none" font-size="none" text-anchor="none" style="mix-blend-mode: normal">
        <g transform="scale(4,4)">
            <path d="M26.5,6c-4.68248,0 -8.5,3.81752 -8.5,8.5v12.5c0,3.47503 1.95059,6.36587 4.64648,7.38477c2.6959,1.0189 6.05928,-0.10277 8.22266,-3.88867c0.17732,-0.31052 0.17549,-0.69206 -0.00481,-1.00086c-0.1803,-0.3088 -0.51166,-0.49794 -0.86924,-0.49615c-0.35758,0.00179 -0.68703,0.19423 -0.86423,0.50482c-1.83663,3.21409 -3.97324,3.69162 -5.77734,3.00977c-1.8041,-0.68185 -3.35352,-2.7917 -3.35352,-5.51367v-12.5c0,-3.60152 2.89848,-6.5 6.5,-6.5c3.60152,0 6.5,2.89848 6.5,6.5v27.5h-3c-2.19733,0 -4,1.80267 -4,4c0,2.19733 1.80267,4 4,4c2.74952,0 5,-2.25048 5,-5v-1h13c3.32556,0 6,2.67444 6,6c0,3.32556 -2.67444,6 -6,6h-21c-3.87748,0 -7,-3.12252 -7,-7v-13c0.0051,-0.36064 -0.18438,-0.69608 -0.49587,-0.87789c-0.3115,-0.18181 -0.69676,-0.18181 -1.00825,0c-0.3115,0.18181 -0.50097,0.51725 -0.49587,0.87789v13c0,4.95852 4.04148,9 9,9h21c4.40644,0 8,-3.59356 8,-8c0,-4.40644 -3.59356,-8 -8,-8h-13v-27.5c0,-4.68248 -3.81752,-8.5 -8.5,-8.5zM30,44h3v1c0,1.66848 -1.33152,3 -3,3c-1.11667,0 -2,-0.88333 -2,-2c0,-1.11667 0.88333,-2 2,-2z"></path>
        </g>
    </g>
</svg>